<?xml version="1.0" encoding="UTF-8"?>
<svg id="_Слой_3" data-name="Слой_3" xmlns="http://www.w3.org/2000/svg" viewBox="0 0 150 132">
  <defs>
    <style>
      .cls-1 {
        fill: none;
      }

      .cls-2 {
        fill: #66c6e4;
      }
    </style>
  </defs>
  <path class="cls-2" d="M100.73,30.9l-4.71,7.14c-5.17-3.76-11.5-5.96-18.34-5.96-17.4,0-31.51,14.29-31.51,31.92,0,11.17,5.66,20.99,14.23,26.69l-4.43,6.72c-10.65-7.2-17.66-19.39-17.66-33.22,0-22.14,17.95-40.09,40.08-40.09,8.27,0,15.96,2.51,22.34,6.8Z"/>
  <path class="cls-1" d="M118.47,64.19c0,22.13-17.94,40.08-40.08,40.08-8.31,0-16.02-2.53-22.42-6.86l4.43-6.72c-8.57-5.7-14.23-15.52-14.23-26.69,0-17.63,14.11-31.92,31.51-31.92,6.84,0,13.17,2.2,18.34,5.96l4.71-7.14c10.7,7.2,17.74,19.42,17.74,33.29Z"/>
  <path class="cls-1" d="M109.2,64c0,17.63-14.11,31.92-31.52,31.92-6.38,0-12.32-1.92-17.28-5.23-8.57-5.7-14.23-15.52-14.23-26.69,0-17.63,14.11-31.92,31.51-31.92,6.84,0,13.17,2.2,18.34,5.96,7.98,5.79,13.18,15.26,13.18,25.96Z"/>
  <polygon class="cls-2" points="118.27 60.23 112.95 68.19 82.32 114.03 72.53 114.03 103.02 68.19 74.06 68.19 74.06 60.23 118.27 60.23"/>
</svg>